STARTFONT 2.1
COMMENT Recovered from ar1.1:PLNK16 1 (Xerox Alto CONVERT font source (AL) recovered from MIT CADR AR1 ARC!!!)
FONT MIT-CADR-PLNK16-AL-AR1
SIZE 16 72 72
FONTBOUNDINGBOX 16 16 0 -16
STARTPROPERTIES 2
FONT_ASCENT 0
FONT_DESCENT 16
ENDPROPERTIES
CHARS 128
STARTCHAR C0000
ENCODING -1 0
SWIDTH 0 0
DWIDTH 0 0
BBX 0 16 0 -16
BITMAP
00
00
00
00
00
00
00
00
00
00
00
00
00
00
00
00
ENDCHAR
STARTCHAR C0001
ENCODING -1 1
SWIDTH 0 0
DWIDTH 0 0
BBX 0 16 0 -16
BITMAP
00
00
00
00
00
00
00
00
00
00
00
00
00
00
00
00
ENDCHAR
STARTCHAR C0002
ENCODING -1 2
SWIDTH 0 0
DWIDTH 0 0
BBX 0 16 0 -16
BITMAP
00
00
00
00
00
00
00
00
00
00
00
00
00
00
00
00
ENDCHAR
STARTCHAR C0003
ENCODING -1 3
SWIDTH 0 0
DWIDTH 0 0
BBX 0 16 0 -16
BITMAP
00
00
00
00
00
00
00
00
00
00
00
00
00
00
00
00
ENDCHAR
STARTCHAR C0004
ENCODING -1 4
SWIDTH 0 0
DWIDTH 0 0
BBX 0 16 0 -16
BITMAP
00
00
00
00
00
00
00
00
00
00
00
00
00
00
00
00
ENDCHAR
STARTCHAR C0005
ENCODING -1 5
SWIDTH 0 0
DWIDTH 0 0
BBX 0 16 0 -16
BITMAP
00
00
00
00
00
00
00
00
00
00
00
00
00
00
00
00
ENDCHAR
STARTCHAR C0006
ENCODING -1 6
SWIDTH 0 0
DWIDTH 0 0
BBX 0 16 0 -16
BITMAP
00
00
00
00
00
00
00
00
00
00
00
00
00
00
00
00
ENDCHAR
STARTCHAR C0007
ENCODING -1 7
SWIDTH 0 0
DWIDTH 0 0
BBX 0 16 0 -16
BITMAP
00
00
00
00
00
00
00
00
00
00
00
00
00
00
00
00
ENDCHAR
STARTCHAR C0008
ENCODING -1 8
SWIDTH 0 0
DWIDTH 0 0
BBX 0 16 0 -16
BITMAP
00
00
00
00
00
00
00
00
00
00
00
00
00
00
00
00
ENDCHAR
STARTCHAR C0009
ENCODING -1 9
SWIDTH 0 0
DWIDTH 0 0
BBX 0 16 0 -16
BITMAP
00
00
00
00
00
00
00
00
00
00
00
00
00
00
00
00
ENDCHAR
STARTCHAR C000A
ENCODING -1 10
SWIDTH 0 0
DWIDTH 0 0
BBX 0 16 0 -16
BITMAP
00
00
00
00
00
00
00
00
00
00
00
00
00
00
00
00
ENDCHAR
STARTCHAR C000B
ENCODING -1 11
SWIDTH 0 0
DWIDTH 0 0
BBX 0 16 0 -16
BITMAP
00
00
00
00
00
00
00
00
00
00
00
00
00
00
00
00
ENDCHAR
STARTCHAR C000C
ENCODING -1 12
SWIDTH 0 0
DWIDTH 0 0
BBX 0 16 0 -16
BITMAP
00
00
00
00
00
00
00
00
00
00
00
00
00
00
00
00
ENDCHAR
STARTCHAR C000D
ENCODING -1 13
SWIDTH 0 0
DWIDTH 0 0
BBX 0 16 0 -16
BITMAP
00
00
00
00
00
00
00
00
00
00
00
00
00
00
00
00
ENDCHAR
STARTCHAR C000E
ENCODING -1 14
SWIDTH 0 0
DWIDTH 0 0
BBX 0 16 0 -16
BITMAP
00
00
00
00
00
00
00
00
00
00
00
00
00
00
00
00
ENDCHAR
STARTCHAR C000F
ENCODING -1 15
SWIDTH 0 0
DWIDTH 0 0
BBX 0 16 0 -16
BITMAP
00
00
00
00
00
00
00
00
00
00
00
00
00
00
00
00
ENDCHAR
STARTCHAR C0010
ENCODING -1 16
SWIDTH 0 0
DWIDTH 0 0
BBX 0 16 0 -16
BITMAP
00
00
00
00
00
00
00
00
00
00
00
00
00
00
00
00
ENDCHAR
STARTCHAR C0011
ENCODING -1 17
SWIDTH 0 0
DWIDTH 0 0
BBX 0 16 0 -16
BITMAP
00
00
00
00
00
00
00
00
00
00
00
00
00
00
00
00
ENDCHAR
STARTCHAR C0012
ENCODING -1 18
SWIDTH 0 0
DWIDTH 0 0
BBX 0 16 0 -16
BITMAP
00
00
00
00
00
00
00
00
00
00
00
00
00
00
00
00
ENDCHAR
STARTCHAR C0013
ENCODING -1 19
SWIDTH 0 0
DWIDTH 0 0
BBX 0 16 0 -16
BITMAP
00
00
00
00
00
00
00
00
00
00
00
00
00
00
00
00
ENDCHAR
STARTCHAR C0014
ENCODING -1 20
SWIDTH 0 0
DWIDTH 0 0
BBX 0 16 0 -16
BITMAP
00
00
00
00
00
00
00
00
00
00
00
00
00
00
00
00
ENDCHAR
STARTCHAR C0015
ENCODING -1 21
SWIDTH 0 0
DWIDTH 0 0
BBX 0 16 0 -16
BITMAP
00
00
00
00
00
00
00
00
00
00
00
00
00
00
00
00
ENDCHAR
STARTCHAR C0016
ENCODING -1 22
SWIDTH 0 0
DWIDTH 0 0
BBX 0 16 0 -16
BITMAP
00
00
00
00
00
00
00
00
00
00
00
00
00
00
00
00
ENDCHAR
STARTCHAR C0017
ENCODING -1 23
SWIDTH 0 0
DWIDTH 0 0
BBX 0 16 0 -16
BITMAP
00
00
00
00
00
00
00
00
00
00
00
00
00
00
00
00
ENDCHAR
STARTCHAR C0018
ENCODING -1 24
SWIDTH 0 0
DWIDTH 0 0
BBX 0 16 0 -16
BITMAP
00
00
00
00
00
00
00
00
00
00
00
00
00
00
00
00
ENDCHAR
STARTCHAR C0019
ENCODING -1 25
SWIDTH 0 0
DWIDTH 0 0
BBX 0 16 0 -16
BITMAP
00
00
00
00
00
00
00
00
00
00
00
00
00
00
00
00
ENDCHAR
STARTCHAR C001A
ENCODING -1 26
SWIDTH 0 0
DWIDTH 0 0
BBX 0 16 0 -16
BITMAP
00
00
00
00
00
00
00
00
00
00
00
00
00
00
00
00
ENDCHAR
STARTCHAR C001B
ENCODING -1 27
SWIDTH 0 0
DWIDTH 0 0
BBX 0 16 0 -16
BITMAP
00
00
00
00
00
00
00
00
00
00
00
00
00
00
00
00
ENDCHAR
STARTCHAR C001C
ENCODING -1 28
SWIDTH 0 0
DWIDTH 0 0
BBX 0 16 0 -16
BITMAP
00
00
00
00
00
00
00
00
00
00
00
00
00
00
00
00
ENDCHAR
STARTCHAR C001D
ENCODING -1 29
SWIDTH 0 0
DWIDTH 0 0
BBX 0 16 0 -16
BITMAP
00
00
00
00
00
00
00
00
00
00
00
00
00
00
00
00
ENDCHAR
STARTCHAR C001E
ENCODING -1 30
SWIDTH 0 0
DWIDTH 0 0
BBX 0 16 0 -16
BITMAP
00
00
00
00
00
00
00
00
00
00
00
00
00
00
00
00
ENDCHAR
STARTCHAR C001F
ENCODING -1 31
SWIDTH 0 0
DWIDTH 0 0
BBX 0 16 0 -16
BITMAP
00
00
00
00
00
00
00
00
00
00
00
00
00
00
00
00
ENDCHAR
STARTCHAR C0020
ENCODING -1 32
SWIDTH 125 0
DWIDTH 2 0
BBX 2 16 0 -16
BITMAP
00
00
00
00
00
00
00
00
00
00
00
80
00
00
00
00
ENDCHAR
STARTCHAR C0021
ENCODING -1 33
SWIDTH 625 0
DWIDTH 10 0
BBX 10 16 0 -16
BITMAP
0C00
1E00
0C00
2D00
7F80
2D00
0C00
0C00
0C00
0C00
0C00
0000
0000
0000
0000
0000
ENDCHAR
STARTCHAR C0022
ENCODING -1 34
SWIDTH 438 0
DWIDTH 7 0
BBX 7 16 0 -16
BITMAP
00
38
6C
44
6C
38
00
00
00
00
00
00
00
00
00
00
ENDCHAR
STARTCHAR C0023
ENCODING -1 35
SWIDTH 750 0
DWIDTH 12 0
BBX 12 16 0 -16
BITMAP
0000
0000
0000
0000
01C0
3BE0
6F20
4620
6E20
3BE0
01C0
0000
0000
0000
0000
0000
ENDCHAR
STARTCHAR C0024
ENCODING -1 36
SWIDTH 500 0
DWIDTH 8 0
BBX 8 16 0 -16
BITMAP
00
00
08
1C
2A
68
68
68
2A
1C
08
00
00
00
00
00
ENDCHAR
STARTCHAR C0025
ENCODING -1 37
SWIDTH 625 0
DWIDTH 10 0
BBX 10 16 0 -16
BITMAP
0000
0000
0C00
0C00
0000
7F80
7F80
0000
0C00
0C00
0000
0000
0000
0000
0000
0000
ENDCHAR
STARTCHAR C0026
ENCODING -1 38
SWIDTH 750 0
DWIDTH 12 0
BBX 12 16 0 -16
BITMAP
0000
0000
0600
0600
0F00
0F00
1980
1980
30C0
30C0
6060
6060
0000
0000
0000
0000
ENDCHAR
STARTCHAR C0027
ENCODING -1 39
SWIDTH 625 0
DWIDTH 10 0
BBX 10 16 0 -16
BITMAP
0000
0000
0000
0C00
0C00
0000
7F80
7F80
0000
7F80
7F80
0000
0000
0000
0000
0000
ENDCHAR
STARTCHAR C0028
ENCODING -1 40
SWIDTH 375 0
DWIDTH 6 0
BBX 6 16 0 -16
BITMAP
00
18
18
30
30
60
60
30
30
18
18
00
00
00
00
00
ENDCHAR
STARTCHAR C0029
ENCODING -1 41
SWIDTH 375 0
DWIDTH 6 0
BBX 6 16 0 -16
BITMAP
00
60
60
30
30
18
18
30
30
60
60
00
00
00
00
00
ENDCHAR
STARTCHAR C002A
ENCODING -1 42
SWIDTH 312 0
DWIDTH 5 0
BBX 5 16 0 -16
BITMAP
00
00
00
00
20
70
70
20
00
00
00
00
00
00
00
00
ENDCHAR
STARTCHAR C002B
ENCODING -1 43
SWIDTH 625 0
DWIDTH 10 0
BBX 10 16 0 -16
BITMAP
0000
0000
0000
0C00
0C00
0C00
7F80
7F80
0C00
7F80
7F80
0000
0000
0000
0000
0000
ENDCHAR
STARTCHAR C002C
ENCODING -1 44
SWIDTH 562 0
DWIDTH 9 0
BBX 9 16 0 -16
BITMAP
0000
0000
0000
0000
3C00
4200
0300
1F00
0300
4200
3C00
0000
0000
0000
0000
0000
ENDCHAR
STARTCHAR C002D
ENCODING -1 45
SWIDTH 625 0
DWIDTH 10 0
BBX 10 16 0 -16
BITMAP
0000
0000
0000
7F80
7F80
0C00
7F80
7F80
0C00
0C00
0C00
0000
0000
0000
0000
0000
ENDCHAR
STARTCHAR C002E
ENCODING -1 46
SWIDTH 688 0
DWIDTH 11 0
BBX 11 16 0 -16
BITMAP
0000
0400
0E00
0E00
0400
0000
0000
2080
71C0
71C0
2080
0000
0000
0000
0000
0000
ENDCHAR
STARTCHAR C002F
ENCODING -1 47
SWIDTH 750 0
DWIDTH 12 0
BBX 12 16 0 -16
BITMAP
0000
0F00
1FC0
31C0
63E0
6760
6E60
7C60
38C0
3F80
0F00
0000
0000
0000
0000
0000
ENDCHAR
STARTCHAR C0030
ENCODING -1 48
SWIDTH 750 0
DWIDTH 12 0
BBX 12 16 0 -16
BITMAP
0000
0F00
1F80
30C0
6060
6060
6060
6060
30C0
1F80
0F00
0000
0000
0000
0000
0000
ENDCHAR
STARTCHAR C0031
ENCODING -1 49
SWIDTH 750 0
DWIDTH 12 0
BBX 12 16 0 -16
BITMAP
0000
7FE0
7FE0
6060
6060
6060
6060
6060
6060
7FE0
7FE0
0000
0000
0000
0000
0000
ENDCHAR
STARTCHAR C0032
ENCODING -1 50
SWIDTH 750 0
DWIDTH 12 0
BBX 12 16 0 -16
BITMAP
0000
0600
0600
0F00
0F00
1980
1980
30C0
30C0
7FE0
7FE0
0000
0000
0000
0000
0000
ENDCHAR
STARTCHAR C0033
ENCODING -1 51
SWIDTH 750 0
DWIDTH 12 0
BBX 12 16 0 -16
BITMAP
0000
0600
0F00
1980
30C0
6060
6060
30C0
1980
0F00
0600
0000
0000
0000
0000
0000
ENDCHAR
STARTCHAR C0034
ENCODING -1 52
SWIDTH 750 0
DWIDTH 12 0
BBX 12 16 0 -16
BITMAP
0000
0F00
1F80
36C0
6660
7FE0
7FE0
6660
36C0
1F80
0F00
0000
0000
0000
0000
0000
ENDCHAR
STARTCHAR C0035
ENCODING -1 53
SWIDTH 750 0
DWIDTH 12 0
BBX 12 16 0 -16
BITMAP
0000
0F00
1F80
30C0
6060
7FE0
7FE0
6060
30C0
1F80
0F00
0000
0000
0000
0000
0000
ENDCHAR
STARTCHAR C0036
ENCODING -1 54
SWIDTH 750 0
DWIDTH 12 0
BBX 12 16 0 -16
BITMAP
0000
0F00
1F80
39C0
7FE0
6F60
6F60
7FE0
39C0
1F80
0F00
0000
0000
0000
0000
0000
ENDCHAR
STARTCHAR C0037
ENCODING -1 55
SWIDTH 750 0
DWIDTH 12 0
BBX 12 16 0 -16
BITMAP
0000
0060
00C0
0180
0300
0600
0C00
1800
3000
7FE0
7FE0
0000
0000
0000
0000
0000
ENDCHAR
STARTCHAR C0038
ENCODING -1 56
SWIDTH 875 0
DWIDTH 14 0
BBX 14 16 0 -16
BITMAP
0300
0300
0780
7FF8
3FF0
1FE0
0FC0
1FE0
1CE0
3870
3030
0000
0000
0000
0000
0000
ENDCHAR
STARTCHAR C0039
ENCODING -1 57
SWIDTH 312 0
DWIDTH 5 0
BBX 5 16 0 -16
BITMAP
60
90
70
10
60
00
00
00
00
00
00
00
00
00
00
00
ENDCHAR
STARTCHAR C003A
ENCODING -1 58
SWIDTH 438 0
DWIDTH 7 0
BBX 7 16 0 -16
BITMAP
38
6C
44
60
38
6C
44
6C
38
0C
44
6C
38
00
00
00
ENDCHAR
STARTCHAR C003B
ENCODING -1 59
SWIDTH 438 0
DWIDTH 7 0
BBX 7 16 0 -16
BITMAP
7C
7C
7C
7C
7C
7C
7C
7C
7C
7C
7C
7C
00
00
00
00
ENDCHAR
STARTCHAR C003C
ENCODING -1 60
SWIDTH 500 0
DWIDTH 8 0
BBX 8 16 0 -16
BITMAP
00
06
0C
18
30
60
30
18
0C
06
00
7E
00
00
00
00
ENDCHAR
STARTCHAR C003D
ENCODING -1 61
SWIDTH 625 0
DWIDTH 10 0
BBX 10 16 0 -16
BITMAP
0000
0000
0600
0600
7F80
7F80
0C00
0C00
7F80
7F80
1800
1800
0000
0000
0000
0000
ENDCHAR
STARTCHAR C003E
ENCODING -1 62
SWIDTH 500 0
DWIDTH 8 0
BBX 8 16 0 -16
BITMAP
00
60
30
18
0C
06
0C
18
30
60
00
7E
00
00
00
00
ENDCHAR
STARTCHAR C003F
ENCODING -1 63
SWIDTH 500 0
DWIDTH 8 0
BBX 8 16 0 -16
BITMAP
00
18
18
00
18
18
30
60
66
66
3C
00
00
00
00
00
ENDCHAR
STARTCHAR C0040
ENCODING -1 64
SWIDTH 875 0
DWIDTH 14 0
BBX 14 16 0 -16
BITMAP
0000
0000
30C0
48C0
4180
4980
3300
0330
0648
0648
0C48
0C30
0000
0000
0000
0000
ENDCHAR
STARTCHAR C0041
ENCODING -1 65
SWIDTH 750 0
DWIDTH 12 0
BBX 12 16 0 -16
BITMAP
0000
6060
6060
30C0
3FC0
1980
1980
0F00
0F00
0600
0600
0000
0000
0000
0000
0000
ENDCHAR
STARTCHAR C0042
ENCODING -1 66
SWIDTH 562 0
DWIDTH 9 0
BBX 9 16 0 -16
BITMAP
0000
0000
1F00
3000
6000
6000
7F00
6000
6000
3000
1F00
0000
0000
0000
0000
0000
ENDCHAR
STARTCHAR C0043
ENCODING -1 67
SWIDTH 688 0
DWIDTH 11 0
BBX 11 16 0 -16
BITMAP
0000
1F80
38C0
6840
6800
6800
6800
6800
6840
38C0
1F80
0000
0000
0000
0000
0000
ENDCHAR
STARTCHAR C0044
ENCODING -1 68
SWIDTH 750 0
DWIDTH 12 0
BBX 12 16 0 -16
BITMAP
0000
7FE0
7FE0
20C0
20C0
1180
1180
0B00
0F00
0600
0600
0000
0000
0000
0000
0000
ENDCHAR
STARTCHAR C0045
ENCODING -1 69
SWIDTH 500 0
DWIDTH 8 0
BBX 8 16 0 -16
BITMAP
00
7E
06
06
06
3E
06
06
06
06
7E
00
00
00
00
00
ENDCHAR
STARTCHAR C0046
ENCODING -1 70
SWIDTH 625 0
DWIDTH 10 0
BBX 10 16 0 -16
BITMAP
0C00
1E00
0C00
2D00
7F80
2D00
0C00
2D00
7F80
2D00
0C00
1E00
0C00
0000
0000
0000
ENDCHAR
STARTCHAR C0047
ENCODING -1 71
SWIDTH 750 0
DWIDTH 12 0
BBX 12 16 0 -16
BITMAP
0000
0000
1FE0
3000
6000
6000
6000
6000
6000
3000
1FE0
0000
0000
0000
0000
0000
ENDCHAR
STARTCHAR C0048
ENCODING -1 72
SWIDTH 750 0
DWIDTH 12 0
BBX 12 16 0 -16
BITMAP
0000
00C0
1FE0
3180
6300
6300
6600
6600
6C00
3C00
1FE0
1800
0000
0000
0000
0000
ENDCHAR
STARTCHAR C0049
ENCODING -1 73
SWIDTH 750 0
DWIDTH 12 0
BBX 12 16 0 -16
BITMAP
0000
0000
1FE0
3000
6000
6000
6000
6000
6000
3000
1FE0
0000
1FE0
0000
0000
0000
ENDCHAR
STARTCHAR C004A
ENCODING -1 74
SWIDTH 750 0
DWIDTH 12 0
BBX 12 16 0 -16
BITMAP
0000
0000
7F80
00C0
0060
0060
0060
0060
0060
00C0
7F80
0000
0000
0000
0000
0000
ENDCHAR
STARTCHAR C004B
ENCODING -1 75
SWIDTH 750 0
DWIDTH 12 0
BBX 12 16 0 -16
BITMAP
0000
0180
7F80
03C0
0660
0660
0C60
0C60
1860
18C0
7F80
3000
0000
0000
0000
0000
ENDCHAR
STARTCHAR C004C
ENCODING -1 76
SWIDTH 750 0
DWIDTH 12 0
BBX 12 16 0 -16
BITMAP
0000
0000
7F80
00C0
0060
0060
0060
0060
0060
00C0
7F80
0000
7F80
0000
0000
0000
ENDCHAR
STARTCHAR C004D
ENCODING -1 77
SWIDTH 500 0
DWIDTH 8 0
BBX 8 16 0 -16
BITMAP
00
00
00
00
00
00
78
0C
06
06
06
26
2C
3C
38
3E
ENDCHAR
STARTCHAR C004E
ENCODING -1 78
SWIDTH 562 0
DWIDTH 9 0
BBX 9 16 0 -16
BITMAP
0000
0400
1F00
3400
6400
6400
7F00
6400
6400
3400
1F00
0400
0000
0000
0000
0000
ENDCHAR
STARTCHAR C004F
ENCODING -1 79
SWIDTH 1000 0
DWIDTH 16 0
BBX 16 16 0 -16
BITMAP
0000
0006
03CC
07F8
0C30
0870
08D0
0990
0B10
0E10
0C30
1FE0
33C0
6000
0000
0000
ENDCHAR
STARTCHAR C0050
ENCODING -1 80
SWIDTH 688 0
DWIDTH 11 0
BBX 11 16 0 -16
BITMAP
0000
0000
0000
0000
01C0
3B00
6E00
4600
6E00
3B00
01C0
0000
0000
0000
0000
0000
ENDCHAR
STARTCHAR C0051
ENCODING -1 81
SWIDTH 750 0
DWIDTH 12 0
BBX 12 16 0 -16
BITMAP
1800
3000
7FE0
7FE0
3000
1800
0180
00C0
7FE0
7FE0
00C0
0180
0000
0000
0000
0000
ENDCHAR
STARTCHAR C0052
ENCODING -1 82
SWIDTH 688 0
DWIDTH 11 0
BBX 11 16 0 -16
BITMAP
0000
7F00
5180
5180
5180
5180
5F00
5600
5300
5180
50C0
0000
0000
0000
0000
0000
ENDCHAR
STARTCHAR C0053
ENCODING -1 83
SWIDTH 750 0
DWIDTH 12 0
BBX 12 16 0 -16
BITMAP
0000
0000
0000
1C60
36C0
6380
0000
1C60
36C0
6380
0000
0000
0000
0000
0000
0000
ENDCHAR
STARTCHAR C0054
ENCODING -1 84
SWIDTH 750 0
DWIDTH 12 0
BBX 12 16 0 -16
BITMAP
0000
0600
0600
0600
0600
0600
0600
0600
0600
0600
7FE0
0000
0000
0000
0000
0000
ENDCHAR
STARTCHAR C0055
ENCODING -1 85
SWIDTH 688 0
DWIDTH 11 0
BBX 11 16 0 -16
BITMAP
60C0
60C0
60C0
60C0
60C0
60C0
60C0
60C0
60C0
3180
1F00
0000
0000
0000
0000
0000
ENDCHAR
STARTCHAR C0056
ENCODING -1 86
SWIDTH 750 0
DWIDTH 12 0
BBX 12 16 0 -16
BITMAP
0000
6060
6060
30C0
30C0
1980
1980
0F00
0F00
0600
0600
0000
0000
0000
0000
0000
ENDCHAR
STARTCHAR C0057
ENCODING -1 87
SWIDTH 688 0
DWIDTH 11 0
BBX 11 16 0 -16
BITMAP
0000
0000
0000
7FC0
7FC0
0000
7FC0
7FC0
0000
7FC0
7FC0
0000
0000
0000
0000
0000
ENDCHAR
STARTCHAR C0058
ENCODING -1 88
SWIDTH 812 0
DWIDTH 13 0
BBX 13 16 0 -16
BITMAP
0000
6030
3060
18C0
0D80
0700
0700
0D80
18C0
3060
6030
0000
0000
0000
0000
0000
ENDCHAR
STARTCHAR C0059
ENCODING -1 89
SWIDTH 625 0
DWIDTH 10 0
BBX 10 16 0 -16
BITMAP
0000
0000
0000
0000
0000
0000
0000
0000
7E00
0600
0600
0600
1680
1F80
0F00
0600
ENDCHAR
STARTCHAR C005A
ENCODING -1 90
SWIDTH 500 0
DWIDTH 8 0
BBX 8 16 0 -16
BITMAP
40
60
70
78
7C
7E
7C
78
70
60
40
00
00
00
00
00
ENDCHAR
STARTCHAR C005B
ENCODING -1 91
SWIDTH 438 0
DWIDTH 7 0
BBX 7 16 0 -16
BITMAP
00
04
04
0C
18
30
60
30
18
0C
04
04
00
00
00
00
ENDCHAR
STARTCHAR C005C
ENCODING -1 92
SWIDTH 500 0
DWIDTH 8 0
BBX 8 16 0 -16
BITMAP
0E
0E
0E
1C
1C
1C
38
38
38
70
70
70
00
00
00
00
ENDCHAR
STARTCHAR C005D
ENCODING -1 93
SWIDTH 438 0
DWIDTH 7 0
BBX 7 16 0 -16
BITMAP
00
40
40
60
30
18
0C
18
30
60
40
40
00
00
00
00
ENDCHAR
STARTCHAR C005E
ENCODING -1 94
SWIDTH 625 0
DWIDTH 10 0
BBX 10 16 0 -16
BITMAP
0C00
0C00
0C00
0C00
0C00
0C00
0C00
0C00
6D80
3F00
1E00
0C00
0000
0000
0000
0000
ENDCHAR
STARTCHAR C005F
ENCODING -1 95
SWIDTH 812 0
DWIDTH 13 0
BBX 13 16 0 -16
BITMAP
0000
0080
00C0
0060
FFF0
FFF0
0060
00C0
0080
0000
0000
0000
0000
0000
0000
0000
ENDCHAR
STARTCHAR C0060
ENCODING -1 96
SWIDTH 0 0
DWIDTH 0 0
BBX 0 16 0 -16
BITMAP
00
00
00
00
00
00
00
00
00
00
00
00
00
00
00
00
ENDCHAR
STARTCHAR C0061
ENCODING -1 97
SWIDTH 625 0
DWIDTH 10 0
BBX 10 16 0 -16
BITMAP
0000
2000
7100
7180
3B80
3F00
1E00
3F00
6780
7380
7380
0100
0000
0000
0000
0000
ENDCHAR
STARTCHAR C0062
ENCODING -1 98
SWIDTH 875 0
DWIDTH 14 0
BBX 14 16 0 -16
BITMAP
0000
0000
0000
0000
0000
00F8
0038
1C78
3FC8
6388
0000
0000
0000
0000
0000
0000
ENDCHAR
STARTCHAR C0063
ENCODING -1 99
SWIDTH 812 0
DWIDTH 13 0
BBX 13 16 0 -16
BITMAP
0000
0F80
1FC0
3060
6730
68B0
6830
68B0
6730
3060
1FC0
0F80
0000
0000
0000
0000
ENDCHAR
STARTCHAR C0064
ENCODING -1 100
SWIDTH 562 0
DWIDTH 9 0
BBX 9 16 0 -16
BITMAP
1C00
2600
0300
0300
1F00
3300
6300
6300
6300
2600
1C00
0000
0000
0000
0000
0000
ENDCHAR
STARTCHAR C0065
ENCODING -1 101
SWIDTH 750 0
DWIDTH 12 0
BBX 12 16 0 -16
BITMAP
0000
0000
0000
0000
0000
1C60
36C0
6380
0000
0000
7FE0
0000
0000
0000
0000
0000
ENDCHAR
STARTCHAR C0066
ENCODING -1 102
SWIDTH 875 0
DWIDTH 14 0
BBX 14 16 0 -16
BITMAP
0000
0000
0840
1860
3030
7FF8
7FF8
3030
1860
0840
0000
0000
0000
0000
0000
0000
ENDCHAR
STARTCHAR C0067
ENCODING -1 103
SWIDTH 1000 0
DWIDTH 16 0
BBX 16 16 0 -16
BITMAP
0000
0040
0060
0030
7FF8
7FFC
0006
7FFC
7FF8
0030
0060
0040
0000
0000
0000
0000
ENDCHAR
STARTCHAR C0068
ENCODING -1 104
SWIDTH 625 0
DWIDTH 10 0
BBX 10 16 0 -16
BITMAP
1900
1A00
1C00
1800
1B00
3D80
5880
1880
1880
1880
1880
0000
0000
0000
0000
0000
ENDCHAR
STARTCHAR C0069
ENCODING -1 105
SWIDTH 438 0
DWIDTH 7 0
BBX 7 16 0 -16
BITMAP
7C
60
60
60
60
60
60
60
60
60
60
00
00
00
00
00
ENDCHAR
STARTCHAR C006A
ENCODING -1 106
SWIDTH 438 0
DWIDTH 7 0
BBX 7 16 0 -16
BITMAP
7C
0C
0C
0C
0C
0C
0C
0C
0C
0C
0C
00
00
00
00
00
ENDCHAR
STARTCHAR C006B
ENCODING -1 107
SWIDTH 438 0
DWIDTH 7 0
BBX 7 16 0 -16
BITMAP
60
60
60
60
60
60
60
60
60
60
7C
00
00
00
00
00
ENDCHAR
STARTCHAR C006C
ENCODING -1 108
SWIDTH 438 0
DWIDTH 7 0
BBX 7 16 0 -16
BITMAP
0C
0C
0C
0C
0C
0C
0C
0C
0C
0C
7C
00
00
00
00
00
ENDCHAR
STARTCHAR C006D
ENCODING -1 109
SWIDTH 375 0
DWIDTH 6 0
BBX 6 16 0 -16
BITMAP
48
48
48
48
48
48
48
48
48
48
48
00
00
00
00
00
ENDCHAR
STARTCHAR C006E
ENCODING -1 110
SWIDTH 875 0
DWIDTH 14 0
BBX 14 16 0 -16
BITMAP
0000
0000
0000
0000
0000
7FF8
7FF8
0008
0008
0008
0000
0000
0000
0000
0000
0000
ENDCHAR
STARTCHAR C006F
ENCODING -1 111
SWIDTH 438 0
DWIDTH 7 0
BBX 7 16 0 -16
BITMAP
00
00
00
00
38
6C
44
6C
38
00
00
80
00
00
00
00
ENDCHAR
STARTCHAR C0070
ENCODING -1 112
SWIDTH 750 0
DWIDTH 12 0
BBX 12 16 0 -16
BITMAP
0000
6000
6000
6000
6000
7FE0
7FE0
6000
6000
6000
6000
0000
0000
0000
0000
0000
ENDCHAR
STARTCHAR C0071
ENCODING -1 113
SWIDTH 812 0
DWIDTH 13 0
BBX 13 16 0 -16
BITMAP
6000
6000
6000
6000
7FF0
6000
7FF0
6000
6000
6000
6000
0000
0000
0000
0000
0000
ENDCHAR
STARTCHAR C0072
ENCODING -1 114
SWIDTH 812 0
DWIDTH 13 0
BBX 13 16 0 -16
BITMAP
0000
0F80
1FC0
3060
6FB0
68B0
6FB0
6930
68B0
3060
1FC0
0F80
0000
0000
0000
0000
ENDCHAR
STARTCHAR C0073
ENCODING -1 115
SWIDTH 812 0
DWIDTH 13 0
BBX 13 16 0 -16
BITMAP
0000
03F0
00F0
00F0
01B0
0310
0610
0C00
1800
3000
6000
0000
0000
0000
0000
0000
ENDCHAR
STARTCHAR C0074
ENCODING -1 116
SWIDTH 812 0
DWIDTH 13 0
BBX 13 16 0 -16
BITMAP
0000
7E00
7800
7800
6C00
4600
4300
0180
00C0
0060
0030
0000
0000
0000
0000
0000
ENDCHAR
STARTCHAR C0075
ENCODING -1 117
SWIDTH 812 0
DWIDTH 13 0
BBX 13 16 0 -16
BITMAP
0000
0030
0060
00C0
0180
4300
4600
6C00
7800
7800
7E00
0000
0000
0000
0000
0000
ENDCHAR
STARTCHAR C0076
ENCODING -1 118
SWIDTH 812 0
DWIDTH 13 0
BBX 13 16 0 -16
BITMAP
0000
6000
3000
1800
0C00
0610
0310
01B0
00F0
00F0
03F0
0000
0000
0000
0000
0000
ENDCHAR
STARTCHAR C0077
ENCODING -1 119
SWIDTH 750 0
DWIDTH 12 0
BBX 12 16 0 -16
BITMAP
0000
0660
0CC0
1980
3300
6600
3300
1980
0CC0
0660
0000
0000
0000
0000
0000
0000
ENDCHAR
STARTCHAR C0078
ENCODING -1 120
SWIDTH 750 0
DWIDTH 12 0
BBX 12 16 0 -16
BITMAP
0000
6600
3300
1980
0CC0
0660
0CC0
1980
3300
6600
0000
0000
0000
0000
0000
0000
ENDCHAR
STARTCHAR C0079
ENCODING -1 121
SWIDTH 750 0
DWIDTH 12 0
BBX 12 16 0 -16
BITMAP
0000
0060
0060
0060
0060
7FE0
7FE0
0060
0060
0060
0060
0000
0000
0000
0000
0000
ENDCHAR
STARTCHAR C007A
ENCODING -1 122
SWIDTH 0 0
DWIDTH 0 0
BBX 0 16 0 -16
BITMAP
00
00
00
00
00
00
00
00
00
00
00
00
00
00
00
00
ENDCHAR
STARTCHAR C007B
ENCODING -1 123
SWIDTH 688 0
DWIDTH 11 0
BBX 11 16 0 -16
BITMAP
0000
2040
60C0
2180
2300
7600
0C80
1980
3280
63C0
4080
0000
0000
0000
0000
0000
ENDCHAR
STARTCHAR C007C
ENCODING -1 124
SWIDTH 688 0
DWIDTH 11 0
BBX 11 16 0 -16
BITMAP
0000
2040
60C0
2180
2300
7600
0D80
1A40
3080
6100
43C0
0000
0000
0000
0000
0000
ENDCHAR
STARTCHAR C007D
ENCODING -1 125
SWIDTH 688 0
DWIDTH 11 0
BBX 11 16 0 -16
BITMAP
0000
3040
48C0
1180
4B00
3600
0C80
1980
3280
63C0
4080
0000
0000
0000
0000
0000
ENDCHAR
STARTCHAR C007E
ENCODING -1 126
SWIDTH 750 0
DWIDTH 12 0
BBX 12 16 0 -16
BITMAP
0000
0000
0000
0100
0180
7FC0
7FE0
0000
7FE0
3FE0
1800
0800
0000
0000
0000
0000
ENDCHAR
STARTCHAR C007F
ENCODING -1 127
SWIDTH 0 0
DWIDTH 0 0
BBX 0 16 0 -16
BITMAP
00
00
00
00
00
00
00
00
00
00
00
00
00
00
00
00
ENDCHAR
ENDFONT
